
      <svg data-logo="logo" xmlns="http://www.w3.org/2000/svg" viewBox="0 0 186.73001098632812 29.6125" width="186.73001098632812" height="29.6125">
        <g id="logogram" transform="
    translate(0, 0)
    rotate(0 0 0)
    
  "></g>
        <g id="logotype" transform="translate(-2.5900000000000003, 0)"><path fill="#ffffff" d="M12.76 15.49L6.07 23.12L6.07 16.06L16.94 2.94Q16.94 2.94 16.94 2.94Q16.94 2.94 16.94 2.94L16.94 2.94L23.77 2.94Q23.77 2.94 23.77 2.94Q23.77 2.94 23.77 2.94L23.77 2.94L12.76 15.49ZM8.10 28L2.59 28Q2.59 28 2.59 28Q2.59 28 2.59 28L2.59 28L2.59 2.94Q2.59 2.94 2.59 2.94Q2.59 2.94 2.59 2.94L2.59 2.94L8.10 2.94Q8.10 2.94 8.10 2.94Q8.10 2.94 8.10 2.94L8.10 2.94L8.10 28Q8.10 28 8.10 28Q8.10 28 8.10 28L8.10 28ZM24.22 28L17.62 28Q17.62 28 17.62 28Q17.62 28 17.62 28L17.62 28L10.06 16.63L13.63 12.44L24.22 28Q24.22 28 24.22 28Q24.22 28 24.22 28L24.22 28ZM32.87 28.61L32.87 28.61Q29.72 28.61 27.94 26.83Q26.16 25.04 26.16 21.75L26.16 21.75L26.16 10.01Q26.16 10.01 26.16 10.01Q26.16 10.01 26.16 10.01L26.16 10.01L31.62 10.01Q31.62 10.01 31.62 10.01Q31.62 10.01 31.62 10.01L31.62 10.01L31.62 20.91Q31.62 22.66 32.45 23.60Q33.27 24.54 34.76 24.54L34.76 24.54Q36.31 24.54 37.37 23.34Q38.43 22.14 38.43 20.39L38.43 20.39L38.43 10.01Q38.43 10.01 38.43 10.01Q38.43 10.01 38.43 10.01L38.43 10.01L43.91 10.01Q43.91 10.01 43.91 10.01Q43.91 10.01 43.91 10.01L43.91 10.01L43.91 28Q43.91 28 43.91 28Q43.91 28 43.91 28L43.91 28L38.76 28Q38.76 28 38.76 28Q38.76 28 38.76 28L38.76 28L38.76 23.13L41.25 25.62L38.64 25.62Q37.89 26.95 36.37 27.78Q34.86 28.61 32.87 28.61ZM66.78 10.01L51.75 24.92L51.75 18.67L59.96 10.01Q59.96 10.01 59.96 10.01Q59.96 10.01 59.96 10.01L59.96 10.01L66.78 10.01Q66.78 10.01 66.78 10.01Q66.78 10.01 66.78 10.01L66.78 10.01ZM53.62 28L48.14 28Q48.14 28 48.14 28Q48.14 28 48.14 28L48.14 28L48.14 2.94Q48.14 2.94 48.14 2.94Q48.14 2.94 48.14 2.94L48.14 2.94L53.62 2.94Q53.62 2.94 53.62 2.94Q53.62 2.94 53.62 2.94L53.62 2.94L53.62 28Q53.62 28 53.62 28Q53.62 28 53.62 28L53.62 28ZM66.89 28L60.34 28Q60.34 28 60.34 28Q60.34 28 60.34 28L60.34 28L55.18 19.23L58.98 15.47L66.89 28Q66.89 28 66.89 28Q66.89 28 66.89 28L66.89 28ZM68.88 28L68.88 28L68.88 10.01Q68.88 10.01 68.88 10.01Q68.88 10.01 68.88 10.01L68.88 10.01L74.11 10.01Q74.11 10.01 74.11 10.01Q74.11 10.01 74.11 10.01L74.11 10.01L74.11 13.32L73.57 12.62L74.23 12.62Q75.11 11.11 76.76 10.25Q78.42 9.40 80.15 9.40L80.15 9.40Q83.14 9.40 84.88 11.22Q86.63 13.04 86.63 16.10L86.63 16.10L86.63 28Q86.63 28 86.63 28Q86.63 28 86.63 28L86.63 28L81.17 28Q81.17 28 81.17 28Q81.17 28 81.17 28L81.17 28L81.17 17.38Q81.17 15.66 80.33 14.76Q79.48 13.86 77.89 13.86L77.89 13.86Q76.37 13.86 75.36 15.02Q74.36 16.19 74.36 17.88L74.36 17.88L74.36 28Q74.36 28 74.36 28Q74.36 28 74.36 28L74.36 28L68.88 28Q68.88 28 68.88 28Q68.88 28 68.88 28ZM96.27 28L90.81 28Q90.81 28 90.81 28Q90.81 28 90.81 28L90.81 28L90.81 10.01Q90.81 10.01 90.81 10.01Q90.81 10.01 90.81 10.01L90.81 10.01L96.27 10.01Q96.27 10.01 96.27 10.01Q96.27 10.01 96.27 10.01L96.27 10.01L96.27 28Q96.27 28 96.27 28Q96.27 28 96.27 28L96.27 28ZM93.56 7.19L93.56 7.19Q92.26 7.19 91.37 6.31Q90.48 5.42 90.48 4.13L90.48 4.13Q90.48 2.82 91.37 1.96Q92.26 1.10 93.56 1.10L93.56 1.10Q94.87 1.10 95.74 1.96Q96.62 2.82 96.62 4.13L96.62 4.13Q96.62 5.42 95.74 6.31Q94.87 7.19 93.56 7.19ZM103.44 28.30L103.44 28.30Q102.03 28.30 101.05 27.33Q100.07 26.36 100.07 24.94L100.07 24.94Q100.07 23.54 101.05 22.57Q102.03 21.61 103.44 21.61L103.44 21.61Q104.86 21.61 105.84 22.57Q106.82 23.54 106.82 24.94L106.82 24.94Q106.82 26.36 105.84 27.33Q104.86 28.30 103.44 28.30ZM121.36 28L115.85 28Q115.85 28 115.85 28Q115.85 28 115.85 28L115.85 28L115.85 5.69L121.36 5.69L121.36 28Q121.36 28 121.36 28Q121.36 28 121.36 28L121.36 28ZM128.14 8.07L109.06 8.07Q109.06 8.07 109.06 8.07Q109.06 8.07 109.06 8.07L109.06 8.07L109.06 2.94Q109.06 2.94 109.06 2.94Q109.06 2.94 109.06 2.94L109.06 2.94L128.14 2.94Q128.14 2.94 128.14 2.94Q128.14 2.94 128.14 2.94L128.14 2.94L128.14 8.07Q128.14 8.07 128.14 8.07Q128.14 8.07 128.14 8.07L128.14 8.07ZM139.34 28.61L139.34 28.61Q134.98 28.61 132.41 25.95Q129.85 23.29 129.85 19.07L129.85 19.07L129.85 19.07Q129.85 14.87 132.48 12.16Q135.12 9.45 139.46 9.45L139.46 9.45Q143.27 9.45 145.84 12.00Q148.40 14.54 148.40 18.83L148.40 18.83Q148.40 19.32 148.37 19.70Q148.33 20.09 148.23 20.72L148.23 20.72Q148.23 20.72 148.23 20.72Q148.23 20.72 148.23 20.72L148.23 20.72L132.39 20.74L132.39 16.73L143.19 16.73L143.19 16.73Q142.96 15.35 142.00 14.49Q141.03 13.63 139.44 13.63L139.44 13.63Q137.55 13.63 136.37 15.00Q135.19 16.36 135.19 18.81L135.19 18.81L135.19 18.81Q135.19 21.54 136.52 23.09Q137.85 24.64 140.12 24.64L140.12 24.64Q141.63 24.64 142.83 23.99Q144.03 23.34 145.00 22.12L145.00 22.12Q145.00 22.12 145.00 22.12Q145.00 22.12 145.00 22.12L145.00 22.12L147.89 24.80Q147.89 24.80 147.89 24.80Q147.89 24.80 147.89 24.80L147.89 24.80Q146.28 26.65 144.30 27.63Q142.31 28.61 139.34 28.61ZM160.02 28.61L160.02 28.61Q155.84 28.61 153.13 25.91Q150.43 23.20 150.43 19.00L150.43 19.00L150.43 19.00Q150.43 14.75 153.13 12.07Q155.82 9.40 160.06 9.40L160.06 9.40Q163.19 9.40 165.38 10.81Q167.56 12.21 168.63 14.93L168.63 14.93Q168.63 14.93 168.63 14.93Q168.63 14.93 168.63 14.93L168.63 14.93L164.12 16.64Q164.12 16.64 164.12 16.64Q164.12 16.64 164.12 16.64L164.12 16.64Q163.50 15.22 162.54 14.59Q161.58 13.96 160.19 13.96L160.19 13.96Q158.32 13.96 157.03 15.35Q155.73 16.73 155.73 18.97L155.73 18.97L155.73 18.97Q155.73 21.21 157.03 22.62Q158.32 24.03 160.18 24.03L160.18 24.03Q161.56 24.03 162.58 23.36Q163.61 22.70 164.20 21.33L164.20 21.33Q164.20 21.33 164.20 21.33Q164.20 21.33 164.20 21.33L164.20 21.33L168.77 22.73Q168.77 22.73 168.77 22.73Q168.77 22.73 168.77 22.73L168.77 22.73Q167.69 25.71 165.43 27.16Q163.17 28.61 160.02 28.61ZM177.05 28L171.57 28Q171.57 28 171.57 28Q171.57 28 171.57 28L171.57 28L171.57 2.94Q171.57 2.94 171.57 2.94Q171.57 2.94 171.57 2.94L171.57 2.94L176.98 2.94Q176.98 2.94 176.98 2.94Q176.98 2.94 176.98 2.94L176.98 2.94L176.98 12.63L177.10 12.63Q177.87 11.16 179.43 10.28Q180.99 9.40 182.84 9.40L182.84 9.40Q185.83 9.40 187.57 11.23Q189.32 13.07 189.32 16.12L189.32 16.12L189.32 28Q189.32 28 189.32 28Q189.32 28 189.32 28L189.32 28L183.86 28Q183.86 28 183.86 28Q183.86 28 183.86 28L183.86 28L183.86 17.38Q183.86 15.68 183.02 14.75Q182.18 13.82 180.64 13.82L180.64 13.82Q179.13 13.82 178.09 15.04Q177.05 16.26 177.05 17.97L177.05 17.97L177.05 28Q177.05 28 177.05 28Q177.05 28 177.05 28L177.05 28Z"/></g>
        
      </svg>
    